<?xml version="1.0" standalone="no"?>
<!DOCTYPE svg PUBLIC "-//W3C//DTD SVG 20010904//EN"
 "http://www.w3.org/TR/2001/REC-SVG-20010904/DTD/svg10.dtd">
<svg version="1.0" xmlns="http://www.w3.org/2000/svg"
 width="641.000000pt" height="552.000000pt" viewBox="0 0 641.000000 552.000000"
 preserveAspectRatio="xMidYMid meet">
<metadata>
Created by potrace 1.16, written by Peter Selinger 2001-2019
</metadata>
<g transform="translate(0.000000,552.000000) scale(0.100000,-0.100000)"
fill="#000000" stroke="none">
<path d="M3326 5222 c-14 -28 -610 -1320 -873 -1892 -79 -173 -150 -321 -157
-328 -23 -23 -198 52 -267 115 -87 79 -91 151 -12 225 45 43 170 104 283 138
101 31 140 55 140 86 0 21 -32 17 -186 -21 -199 -49 -364 -118 -441 -183 -37
-32 -73 -93 -73 -124 0 -179 389 -333 1020 -403 197 -22 749 -31 962 -16 637
47 1107 185 1193 352 75 144 -109 280 -517 380 -76 18 -140 31 -143 28 -3 -3
0 -19 6 -36 9 -28 19 -34 112 -63 134 -42 246 -101 297 -156 52 -56 56 -110
11 -170 -42 -57 -232 -162 -277 -152 -14 3 -111 209 -832 1775 -119 260 -220
473 -224 473 -4 0 -14 -12 -22 -28z m248 -1595 c119 -258 216 -475 216 -483 0
-10 -24 -14 -107 -16 l-108 -3 0 -130 0 -130 -230 0 -230 0 0 130 0 130 -107
3 c-77 2 -108 6 -108 15 0 7 93 213 206 457 113 245 212 460 220 479 8 20 18
31 23 25 5 -5 106 -220 225 -477z"/>
<path d="M1686 3679 c-70 -20 -109 -94 -86 -163 42 -129 240 -95 240 41 0 87
-74 146 -154 122z"/>
<path d="M4453 3300 c-52 -31 -57 -97 -11 -140 45 -41 129 -12 143 49 9 41
-17 86 -56 100 -41 14 -38 14 -76 -9z"/>
<path d="M2207 2799 c-24 -54 -116 -253 -281 -613 -48 -104 -83 -193 -79 -197
5 -5 245 -10 533 -11 l525 -3 -3 -110 c-3 -75 0 -107 7 -100 17 17 87 271 119
435 31 153 54 313 67 463 7 72 6 77 -12 77 -153 0 -552 52 -820 106 -31 6 -33
5 -56 -47z"/>
<path d="M4410 2846 c-18 -16 -456 -76 -757 -102 -50 -4 -63 -9 -63 -22 0 -30
30 -274 46 -377 30 -194 121 -556 146 -580 7 -7 9 26 6 100 l-3 110 527 5
c289 3 529 8 533 12 4 4 -81 197 -188 430 -173 376 -197 423 -219 426 -13 2
-26 1 -28 -2z"/>
<path d="M1965 1193 c-125 -27 -215 -134 -215 -255 0 -76 30 -155 77 -200 21
-20 83 -62 138 -93 55 -31 108 -65 118 -77 46 -55 -5 -153 -79 -151 -57 2 -94
46 -94 113 0 58 -10 63 -101 58 l-54 -3 -3 -52 c-4 -68 10 -119 47 -169 94
-128 263 -147 376 -43 62 57 85 110 85 194 0 123 -37 171 -199 259 -105 57
-140 89 -148 139 -16 101 89 167 158 98 26 -27 29 -36 29 -98 0 -40 5 -74 12
-81 7 -7 40 -12 80 -12 l68 0 0 92 c0 72 -4 101 -21 135 -48 99 -176 168 -274
146z"/>
<path d="M1096 1153 c-16 -82 -156 -862 -156 -872 0 -8 23 -11 77 -9 l77 3 11
45 11 45 84 0 84 0 11 -45 11 -45 77 -3 c64 -2 77 0 77 13 0 24 -150 876 -156
886 -3 5 -50 9 -104 9 l-98 0 -6 -27z m139 -457 c14 -92 23 -172 20 -177 -7
-11 -102 -12 -109 -1 -4 8 40 310 50 341 9 27 14 3 39 -163z"/>
<path d="M2567 1174 c-4 -4 -7 -38 -7 -75 0 -79 0 -79 106 -79 l74 0 0 -375 0
-375 80 0 80 0 0 375 0 374 88 3 87 3 0 75 0 75 -251 3 c-138 1 -253 -1 -257
-4z"/>
<path d="M3408 785 c-1 -217 -2 -421 -3 -452 l0 -58 76 -3 76 -3 7 47 c3 26 6
114 6 197 l0 149 65 -4 c58 -3 69 -8 98 -36 l32 -32 3 -160 4 -160 80 0 80 0
-4 172 c-3 169 -4 174 -32 231 -25 48 -28 61 -18 75 7 9 24 41 39 71 22 46 25
63 21 120 -6 76 -23 116 -75 167 -65 65 -96 74 -285 74 l-168 0 -2 -395z m343
206 c32 -32 38 -71 17 -116 -17 -38 -58 -55 -133 -55 l-65 0 0 100 0 100 76 0
c70 0 78 -2 105 -29z"/>
<path d="M4420 1173 c0 -5 -36 -206 -80 -447 -44 -242 -80 -443 -80 -448 0 -4
35 -8 78 -8 l79 0 9 48 9 47 85 0 85 0 11 -45 11 -45 76 -3 c68 -3 77 -1 77
15 0 18 -12 88 -104 618 -25 143 -46 263 -46 268 0 4 -47 7 -105 7 -58 0 -105
-3 -105 -7z m139 -492 c11 -84 18 -157 15 -162 -6 -11 -101 -12 -107 -1 -5 7
36 284 49 332 6 24 7 24 15 5 4 -11 17 -89 28 -174z"/>
<path d="M5137 1173 c-4 -3 -7 -208 -7 -455 l0 -448 218 2 217 3 0 75 0 75
-135 5 -135 5 -3 373 -2 372 -73 0 c-41 0 -77 -3 -80 -7z"/>
</g>
</svg>
