<?xml version="1.0" encoding="utf-8"?>
<svg viewBox="-5.61 1.87 163.36 157.127" xmlns="http://www.w3.org/2000/svg">
  <g transform="matrix(0.1, 0, 0, -0.1, -6.173866, 158.666718)" fill="#000000" stroke="none">
    <path d="M650 1044 c-113 -245 -211 -448 -218 -451 -17 -7 -68 15 -103 45 -44 36 -40 74 11 111 23 16 63 35 90 42 28 7 50 16 50 21 0 12 -11 10 -86 -13 -111 -34 -174 -74 -174 -109 0 -24 48 -66 100 -88 86 -36 283 -72 400 -72 l45 0 -3 55 -4 55 -39 0 c-24 0 -39 5 -39 13 -1 19 172 388 179 382 13 -13 178 -380 174 -387 -2 -5 -22 -8 -44 -8 l-39 0 0 -49 c0 -57 -5 -60 -110 -62 -36 -1 -51 -4 -35 -6 57 -9 343 18 448 42 155 35 227 75 227 126 0 46 -60 79 -232 126 -10 2 -18 0 -18 -6 0 -6 7 -11 16 -11 33 0 140 -59 154 -85 12 -23 12 -30 0 -53 -14 -24 -88 -71 -116 -72 -6 0 -102 199 -214 443 -112 243 -206 445 -210 449 -3 5 -98 -193 -210 -438z" style="fill: rgb(54, 79, 185); stroke-width: 0px; stroke-miterlimit: 6.99; stroke-dashoffset: -14px;"/>
    <path d="M182 854 c-32 -22 -26 -65 10 -78 19 -7 31 -6 42 4 23 18 20 67 -3 80 -25 13 -22 13 -49 -6z" style="fill: rgb(54, 79, 185); stroke-width: 0px; stroke-miterlimit: 6.99; stroke-dashoffset: -14px;"/>
    <path d="M1292 688 c2 -15 11 -24 26 -26 18 -3 22 1 22 22 0 21 -5 26 -26 26 -21 0 -25 -4 -22 -22z" style="fill: rgb(54, 79, 185); stroke-width: 0px; stroke-miterlimit: 6.99; stroke-dashoffset: -14px;"/>
    <path d="M1447 594 c-9 -10 2 -24 19 -24 8 0 14 7 14 15 0 15 -21 21 -33 9z" style="fill: rgb(54, 79, 185); stroke-width: 0px; stroke-miterlimit: 6.99; stroke-dashoffset: -14px;"/>
    <path d="M387 479 c-14 -30 -48 -105 -76 -166 -28 -62 -51 -115 -51 -118 0 -3 94 -5 210 -5 l210 0 0 -37 c0 -20 3 -34 6 -31 15 15 59 231 66 323 l3 40 -130 16 c-72 9 -149 20 -172 24 l-42 7 -24 -53z" style="fill: rgb(54, 79, 185); stroke-width: 0px; stroke-miterlimit: 6.99; stroke-dashoffset: -14px;"/>
    <path d="M1175 515 c-44 -7 -111 -16 -149 -20 l-69 -7 7 -71 c7 -76 26 -174 47 -247 l13 -45 4 33 3 32 210 0 c161 0 209 3 208 13 0 6 -33 82 -73 167 -82 176 -68 167 -201 145z" style="fill: rgb(54, 79, 185); stroke-width: 0px; stroke-miterlimit: 6.99; stroke-dashoffset: -14px;"/>
  </g>
</svg>